<?xml version="1.0" standalone="no"?>
<!DOCTYPE svg PUBLIC "-//W3C//DTD SVG 20010904//EN"
 "http://www.w3.org/TR/2001/REC-SVG-20010904/DTD/svg10.dtd">
<svg version="1.0" xmlns="http://www.w3.org/2000/svg"
 width="512.000000pt" height="512.000000pt" viewBox="0 0 512.000000 512.000000"
 preserveAspectRatio="xMidYMid meet">
<metadata>
Created by potrace 1.14, written by Peter Selinger 2001-2017
</metadata>
<g transform="translate(0.000000,512.000000) scale(0.100000,-0.100000)"
fill="#000000" stroke="none">
<path d="M2507 5104 c-1 -1 -49 -4 -107 -7 -157 -9 -410 -52 -535 -90 -5 -2
-37 -11 -70 -21 -153 -45 -414 -164 -558 -255 -541 -338 -926 -835 -1111
-1434 -15 -48 -30 -100 -32 -114 -3 -15 -13 -63 -24 -108 -10 -44 -21 -100
-24 -125 -9 -71 -16 -132 -21 -186 -7 -71 -7 -339 0 -409 6 -59 7 -71 20 -170
13 -96 38 -211 71 -325 152 -527 448 -960 904 -1324 264 -209 652 -387 1020
-464 108 -23 171 -33 315 -47 75 -8 330 -8 410 0 262 25 566 96 732 171 17 8
33 14 36 14 13 0 182 82 259 126 87 49 267 165 290 186 7 7 31 26 53 43 119
87 340 313 450 460 180 239 297 462 391 744 45 136 97 371 109 491 3 36 8 83
11 105 7 55 7 330 0 391 -3 27 -8 70 -11 96 -7 66 -14 115 -26 173 -5 28 -11
60 -14 73 -2 12 -11 50 -20 85 -9 34 -18 70 -20 79 -19 92 -124 349 -202 496
-75 141 -223 358 -312 457 -459 508 -982 787 -1631 870 -76 10 -346 24 -353
19z m288 -288 c191 -26 233 -34 366 -70 724 -199 1312 -755 1549 -1466 40
-120 58 -193 80 -320 6 -30 12 -66 15 -80 25 -126 25 -483 1 -630 -3 -14 -7
-41 -10 -60 -42 -274 -148 -559 -303 -814 -184 -302 -491 -603 -788 -773 -366
-210 -728 -307 -1145 -307 -189 0 -292 10 -460 44 -433 90 -828 305 -1145 624
-230 232 -376 452 -501 757 -43 104 -106 314 -118 394 -4 21 -9 47 -12 59 -33
135 -38 542 -9 711 53 301 118 501 241 734 54 102 164 275 201 316 10 11 31
38 47 60 45 60 261 274 341 337 256 201 532 339 845 422 52 14 111 28 130 31
19 3 49 8 65 11 49 9 76 13 155 20 41 3 76 7 78 9 6 5 328 -3 377 -9z"/>
<path d="M2015 3058 c-127 -99 -256 -200 -288 -225 l-57 -44 -10 26 c-28 75
-127 180 -219 235 -113 67 -174 77 -493 78 l-278 1 -1 -42 c0 -54 0 -1005 0
-1033 l1 -22 293 3 c307 3 334 6 439 54 49 22 136 87 175 130 13 14 40 54 60
88 l37 62 65 -52 c36 -28 107 -83 156 -121 50 -39 92 -73 95 -76 3 -3 25 -21
50 -40 25 -19 47 -37 50 -40 4 -4 86 -67 146 -112 9 -7 97 52 124 82 3 3 43
35 90 70 47 36 90 70 96 75 6 6 26 21 44 35 19 14 48 36 64 51 86 71 216 169
217 162 0 -5 1 -90 2 -190 l1 -183 380 3 381 2 1 145 c0 80 -2 152 -5 160 -5
13 -36 15 -191 15 l-185 0 -1 380 c-1 209 -2 383 -3 386 0 4 -86 7 -190 7
l-188 1 -1 -172 c0 -95 0 -181 -1 -192 -1 -13 -22 -37 -53 -60 -28 -22 -110
-86 -182 -143 -72 -57 -144 -114 -161 -127 -16 -13 -53 -41 -81 -63 l-50 -40
-48 42 -48 41 109 85 c59 47 115 90 123 97 8 7 71 56 140 110 168 131 157 117
113 150 -21 15 -40 30 -43 33 -3 3 -33 28 -67 54 l-63 49 -72 -56 c-40 -31
-158 -123 -263 -205 l-190 -150 -45 33 c-25 18 -45 38 -45 44 0 6 113 100 250
207 138 108 251 200 253 204 2 6 -160 142 -193 162 -6 4 -114 -74 -240 -174z
m-765 -278 c110 -61 140 -225 64 -343 -37 -57 -108 -87 -204 -87 l-75 0 1 233
c1 127 2 232 3 232 0 0 38 -2 84 -5 61 -4 93 -12 127 -30z"/>
<path d="M3743 3117 c-7 -9 -10 -1039 -4 -1079 1 -4 171 -6 379 -5 l377 2 3
158 c2 144 1 157 -15 158 -10 0 -96 1 -190 1 l-173 0 0 51 c-1 29 -1 203 -1
388 l-1 335 -183 1 c-131 1 -186 -2 -192 -10z"/>
</g>
</svg>
