<svg version="1.2" xmlns="http://www.w3.org/2000/svg" viewBox="0 0 300 300" width="300" height="300">
	<title>dell-svg</title>
	<style>
		.s0 { fill: #ffffff } 
	</style>
	<g id="layer1">
		<g id="g3460">
			<path id="path3462" fill-rule="evenodd" class="s0" d="m150 1c82.3 0 149 66.7 149 149 0 82.3-66.7 149-149 149-82.3 0-149-66.7-149-149 0-82.3 66.7-149 149-149zm0 16.1c-36.7 0-69.9 14.9-94 39-24 24-38.9 57.2-38.9 93.9 0 36.7 14.9 69.9 38.9 93.9 24.1 24.1 57.3 39 94 39 36.7 0 69.9-14.9 94-39 24-24 38.9-57.2 38.9-93.9 0-36.7-14.9-69.9-38.9-93.9-24.1-24.1-57.3-39-94-39z"/>
		</g>
		<g id="g3464">
			<path id="path3466" fill-rule="evenodd" class="s0" d="m168.3 158.6l-36.7 29-33.6-26.5c-4.9 11.7-16.6 19.7-30.1 19.7h-28.8v-64h28.8c15.1 0 25.9 9.6 30 19.8l33.7-26.5 12.4 9.8-30.8 24.3 5.9 4.6 30.8-24.2 12.5 9.8-30.8 24.2 5.9 4.6 30.8-24.2v-22.2h22.4v45.3h22.3v18.8h-44.7zm-88.8-9.8c0-8.7-5.7-13.6-13.9-13.6h-5v27.2h4.9c7.6 0 14-4.1 14-13.6zm161.8 13.4h22.3v18.7h-44.7v-64.1h22.4z"/>
		</g>
	</g>
</svg>